<svg id="Layer_1" data-name="Layer 1" xmlns="http://www.w3.org/2000/svg" viewBox="0 0 85.83 145.36"><defs><style>.cls-1{fill:#2cff2c;}</style></defs><title>foodleico</title><path class="cls-1" d="M121.52,71.36c-1.4-5.78-2.52-12.57-4.32-18.12-.78,8.79-2.35,18.06-5.94,26-2.59,5.75-5.84,2.18-8.55-2.68A24.38,24.38,0,0,1,99.1,64.41c-.41-12.16,3.92-26.5-.77-37.91C94.4,17,86.86,9.13,80.93,1.66c-.81,4.56-.8,8.84-2.08,13.51-1.74,6.27-4.27,13-8.7,16.93s-8.82,6.46-11.32,13c-2,5.24-1.9,10.44-1.85,16.15C57,67.7,59,73.94,54.22,78.71c-2.45,2.42-5.23,1.83-6.29-2.55-.85-3.46-.51-5.92-2.19-9a16.25,16.25,0,0,1-1.94-8v-.32c0,13.76-4.94,27.77-4.67,41.52C39.28,107,40.2,116,42.5,122.09c6.2,16.28,16.9,19.6,20.6,21.22,5,2.17,10.07,2.63,15.13,3.53s14.19-1.57,19.07-3C118,137.54,124.94,117.09,125,92.7,125,85,123.3,78.69,121.52,71.36ZM83.29,129.15c-11.37.07-19.56-7.17-14-22.5,4.82-14.48,10-18,13.12-34,.92,16.44,9.63,23.75,13.06,37.37C96.81,118.57,94.66,129.12,83.29,129.15Z" transform="translate(-39.12 -1.66)"/></svg>